Coordinates
version=1
nRows=15
nColumns=34
inDegrees=no

Units are S.I. units (second, meters, Newtons, ...)
If the header above contains a line with 'inDegrees', this indicates whether rotational values are in degrees (yes) or radians (no).

endheader
time	pelvis_tilt	pelvis_list	pelvis_rotation	pelvis_tx	pelvis_ty	pelvis_tz	hip_flexion_r	hip_adduction_r	hip_rotation_r	knee_angle_r	ankle_angle_r	subtalar_angle_r	mtp_angle_r	hip_flexion_l	hip_adduction_l	hip_rotation_l	knee_angle_l	ankle_angle_l	subtalar_angle_l	mtp_angle_l	lumbar_extension	lumbar_bending	lumbar_rotation	arm_flex_r	arm_add_r	arm_rot_r	elbow_flex_r	pro_sup_r	arm_flex_l	arm_add_l	arm_rot_l	elbow_flex_l	pro_sup_l
1.13	0.16233	0.00331836	0.0057275	1.1694	1.14509	-0.183622	0.231529	0.0099386	-0.153603	0.149299	0.0905536	0.128982	-0.0615733	-0.356779	0.0872059	-0.229614	0.0690439	0.259012	0.231363	-0.121753	-0.435738	-0.000173386	-0.0659194	-0.18307	-0.12747	-0.254338	0.75926	2.13036	-0.0785667	-0.191287	-0.119137	0.959152	2.09289
1.14	0.160389	0.000109162	0.00463805	1.18042	1.14362	-0.18331	0.229243	0.0197088	-0.170942	0.127342	0.0924899	0.14501	-0.0616651	-0.364332	0.0828443	-0.237711	0.0729832	0.265438	0.242398	-0.12173	-0.434844	0.0035756	-0.0638995	-0.181662	-0.127661	-0.254768	0.759713	2.13029	-0.0791394	-0.1903	-0.118989	0.956634	2.09281
1.15	0.158266	-0.00306904	0.00372516	1.19159	1.14218	-0.18302	0.227791	0.0292617	-0.185943	0.111565	0.0933932	0.154595	-0.0617569	-0.371133	0.0784235	-0.244985	0.0780091	0.270996	0.251514	-0.121708	-0.433598	0.00754205	-0.0621941	-0.180358	-0.127828	-0.255597	0.760427	2.13025	-0.0799344	-0.18915	-0.118955	0.953241	2.09272
1.16	0.15603	-0.0061124	0.00307782	1.20294	1.14078	-0.182775	0.227091	0.0382901	-0.197917	0.101926	0.0932814	0.157946	-0.0618486	-0.377469	0.0741444	-0.250603	0.0836672	0.275315	0.257862	-0.121685	-0.432059	0.0116873	-0.0608714	-0.179217	-0.127973	-0.256901	0.761422	2.13025	-0.080922	-0.187827	-0.118991	0.948984	2.09266
1.17	0.153792	-0.00895145	0.00278278	1.21447	1.13943	-0.182594	0.22696	0.04656	-0.206334	0.0980982	0.0920064	0.155488	-0.0619404	-0.38367	0.0701518	-0.253829	0.0895055	0.278045	0.260746	-0.121662	-0.430338	0.0160057	-0.0599717	-0.178298	-0.128107	-0.258725	0.762723	2.1303	-0.0820645	-0.186322	-0.119058	0.943872	2.09266
1.18	0.15169	-0.0115892	0.00291824	1.22619	1.13816	-0.182485	0.227157	0.0539379	-0.210901	0.0995067	0.0892728	0.147786	-0.0620321	-0.389987	0.0664691	-0.254301	0.0952926	0.278974	0.259904	-0.12164	-0.428571	0.0205293	-0.0594987	-0.177649	-0.128244	-0.261089	0.764348	2.13038	-0.0833215	-0.184623	-0.11912	0.937916	2.09275
1.19	0.149851	-0.0140969	0.00354397	1.2381	1.13701	-0.182452	0.227439	0.0604347	-0.211622	0.105394	0.0847065	0.135495	-0.0621237	-0.396401	0.0628863	-0.252464	0.101341	0.278209	0.255956	-0.121617	-0.426885	0.0253555	-0.0594039	-0.177309	-0.128405	-0.263973	0.7663	2.13046	-0.0846591	-0.182723	-0.119155	0.931127	2.09297
1.2	0.148374	-0.0165761	0.00468123	1.25017	1.13598	-0.182493	0.227611	0.06614	-0.20881	0.114927	0.077984	0.119344	-0.0622154	-0.402722	0.059105	-0.24912	0.108239	0.275953	0.24988	-0.121595	-0.425379	0.0305892	-0.0595945	-0.177293	-0.128612	-0.267326	0.768553	2.1305	-0.0860453	-0.18061	-0.119148	0.923516	2.09335
1.21	0.147312	-0.0191237	0.00630401	1.2624	1.13509	-0.182599	0.227554	0.0711749	-0.203057	0.127296	0.0689739	0.100131	-0.062307	-0.408655	0.0548362	-0.245109	0.11667	0.272353	0.242627	-0.121573	-0.424118	0.0363066	-0.0599437	-0.177591	-0.128888	-0.271064	0.771042	2.13045	-0.0874513	-0.17827	-0.119103	0.915097	2.09388
1.22	0.146672	-0.0218099	0.0083402	1.27476	1.13437	-0.18276	0.227231	0.0756612	-0.195141	0.14179	0.0578481	0.0786976	-0.0623986	-0.413848	0.0498573	-0.241106	0.127306	0.2674	0.234889	-0.121551	-0.423126	0.0425338	-0.0603064	-0.17816	-0.129256	-0.275077	0.773666	2.13021	-0.0888562	-0.175689	-0.119038	0.905903	2.09452
1.23	0.146411	-0.0246652	0.0106799	1.28722	1.13383	-0.18296	0.226669	0.0797028	-0.185905	0.157841	0.0451376	0.055899	-0.0624902	-0.417915	0.044039	-0.23754	0.140756	0.260901	0.22701	-0.121528	-0.422394	0.0492369	-0.0605367	-0.178935	-0.129733	-0.279235	0.776292	2.12972	-0.0902516	-0.172858	-0.118994	0.896003	2.09523
1.24	0.146445	-0.0276781	0.01319	1.29976	1.13346	-0.183182	0.225937	0.0833772	-0.176122	0.175024	0.03171	0.0325573	-0.0625818	-0.420448	0.0373488	-0.234581	0.157555	0.252493	0.218996	-0.121506	-0.421877	0.0563198	-0.0605079	-0.179832	-0.130328	-0.283398	0.77877	2.12893	-0.0916473	-0.169778	-0.119033	0.885516	2.09598
1.25	0.146663	-0.0307974	0.0157348	1.31235	1.13327	-0.183404	0.225118	0.0867353	-0.166397	0.193026	0.0186684	0.00941623	-0.0626733	-0.421028	0.0298396	-0.232186	0.178155	0.241691	0.210596	-0.121484	-0.421499	0.063632	-0.0601319	-0.180758	-0.131039	-0.287421	0.780948	2.12779	-0.0930739	-0.166471	-0.119233	0.874622	2.09674
1.26	0.146943	-0.0339383	0.0181992	1.32497	1.13327	-0.183609	0.22428	0.0898062	-0.157122	0.211592	0.00718782	-0.0129004	-0.0627648	-0.419241	0.021627	-0.230152	0.202927	0.227963	0.201419	-0.121462	-0.421158	0.0709844	-0.0593755	-0.181627	-0.131853	-0.291165	0.782692	2.12638	-0.0945824	-0.162988	-0.119678	0.863558	2.09755
1.27	0.147161	-0.0369923	0.020512	1.33759	1.13343	-0.183779	0.22345	0.092603	-0.148493	0.230465	-0.00167413	-0.0339173	-0.0628564	-0.414697	0.0128647	-0.228182	0.232148	0.210798	0.19104	-0.12144	-0.420738	0.0781724	-0.0582697	-0.182361	-0.132745	-0.294505	0.783905	2.12479	-0.0962387	-0.159409	-0.120435	0.852611	2.09849
